<svg width="888" height="751" viewBox="0 0 888 751" fill="none" xmlns="http://www.w3.org/2000/svg">
<path d="M704 36L710.511 55.3554H731.581L714.535 67.3177L721.046 86.673L704 74.7108L686.954 86.673L693.465 67.3177L676.419 55.3554H697.489L704 36Z" fill="#E7E6E6"/>
<path d="M71 694L77.5109 713.355H98.5806L81.5349 725.318L88.0458 744.673L71 732.711L53.9542 744.673L60.4651 725.318L43.4194 713.355H64.4891L71 694Z" fill="#E7E6E6"/>
<path d="M29 0L35.5109 19.3554H56.5806L39.5349 31.3177L46.0458 50.673L29 38.7108L11.9542 50.673L18.4651 31.3177L1.41936 19.3554H22.4891L29 0Z" fill="#E7E6E6"/>
<path d="M859 636L865.511 655.355H886.581L869.535 667.318L876.046 686.673L859 674.711L841.954 686.673L848.465 667.318L831.419 655.355H852.489L859 636Z" fill="#E7E6E6"/>
</svg>
